<svg width="13" height="13" viewBox="0 0 13 13" fill="none" xmlns="http://www.w3.org/2000/svg">
<circle cx="6.81398" cy="6.18605" r="5.93605" stroke="#39C61C" stroke-width="0.5"/>
<circle cx="5.04681" cy="4.4186" r="0.883721" fill="#39C61C"/>
<circle cx="8.58148" cy="4.41859" r="0.883721" fill="#39C61C"/>
<path d="M9.28186 7.06978C9.43736 7.45629 9.49534 7.87365 9.4509 8.28664C9.40646 8.69963 9.26091 9.09611 9.02653 9.44263C8.79215 9.78915 8.47582 10.0755 8.10425 10.2776C7.73267 10.4796 7.31677 10.5914 6.89163 10.6036C6.4665 10.6157 6.04462 10.5278 5.6616 10.3472C5.27859 10.1667 4.94569 9.89881 4.691 9.56624C4.4363 9.23367 4.2673 8.84615 4.19826 8.4364C4.12921 8.02664 4.16214 7.60669 4.29428 7.21198L6.31266 7.8561C6.63735 7.95972 6.98763 7.94968 7.30584 7.82764L9.28186 7.06978Z" fill="#39C61C"/>
</svg>
