<svg width="201" height="47" viewBox="0 0 201 47" fill="none" xmlns="http://www.w3.org/2000/svg">
<g opacity="0.8">
<path d="M62.2265 39.245C59.3565 39.245 56.9999 38.5683 55.1565 37.215C53.3132 35.8383 52.3215 33.8783 52.1815 31.335H59.4965C59.5665 32.1983 59.8232 32.8283 60.2665 33.225C60.7099 33.6217 61.2815 33.82 61.9815 33.82C62.6115 33.82 63.1249 33.6683 63.5215 33.365C63.9415 33.0383 64.1515 32.595 64.1515 32.035C64.1515 31.3117 63.8132 30.7517 63.1365 30.355C62.4599 29.9583 61.3632 29.515 59.8465 29.025C58.2365 28.4883 56.9299 27.975 55.9265 27.485C54.9465 26.9717 54.0832 26.2367 53.3365 25.28C52.6132 24.3 52.2515 23.0283 52.2515 21.465C52.2515 19.8783 52.6482 18.525 53.4415 17.405C54.2349 16.2617 55.3315 15.3983 56.7315 14.815C58.1315 14.2317 59.7182 13.94 61.4915 13.94C64.3615 13.94 66.6482 14.6167 68.3515 15.97C70.0782 17.3 70.9999 19.1783 71.1165 21.605H63.6615C63.6382 20.8583 63.4049 20.2983 62.9615 19.925C62.5415 19.5517 61.9932 19.365 61.3165 19.365C60.8032 19.365 60.3832 19.5167 60.0565 19.82C59.7299 20.1233 59.5665 20.555 59.5665 21.115C59.5665 21.5817 59.7415 21.99 60.0915 22.34C60.4649 22.6667 60.9199 22.9583 61.4565 23.215C61.9932 23.4483 62.7865 23.7517 63.8365 24.125C65.3999 24.6617 66.6832 25.1983 67.6865 25.735C68.7132 26.2483 69.5882 26.9833 70.3115 27.94C71.0582 28.8733 71.4315 30.0633 71.4315 31.51C71.4315 32.98 71.0582 34.2983 70.3115 35.465C69.5882 36.6317 68.5265 37.5533 67.1265 38.23C65.7499 38.9067 64.1165 39.245 62.2265 39.245ZM73.5006 29.165C73.5006 27.135 73.9206 25.3617 74.7606 23.845C75.6006 22.3283 76.7673 21.1617 78.2606 20.345C79.7773 19.5283 81.504 19.12 83.4406 19.12C85.9373 19.12 88.0373 19.8083 89.7406 21.185C91.444 22.5383 92.5406 24.44 93.0306 26.89H85.7506C85.3306 25.6067 84.514 24.965 83.3006 24.965C82.4373 24.965 81.749 25.3267 81.2356 26.05C80.7456 26.75 80.5006 27.7883 80.5006 29.165C80.5006 30.5417 80.7456 31.5917 81.2356 32.315C81.749 33.0383 82.4373 33.4 83.3006 33.4C84.5373 33.4 85.354 32.7583 85.7506 31.475H93.0306C92.5406 33.9017 91.444 35.8033 89.7406 37.18C88.0373 38.5567 85.9373 39.245 83.4406 39.245C81.504 39.245 79.7773 38.8367 78.2606 38.02C76.7673 37.2033 75.6006 36.0367 74.7606 34.52C73.9206 33.0033 73.5006 31.2183 73.5006 29.165ZM94.7604 29.165C94.7604 27.135 95.1221 25.3617 95.8454 23.845C96.5921 22.3283 97.5954 21.1617 98.8554 20.345C100.139 19.5283 101.562 19.12 103.125 19.12C104.479 19.12 105.645 19.3883 106.625 19.925C107.605 20.4617 108.364 21.185 108.9 22.095V19.365H115.76V39H108.9V36.27C108.364 37.18 107.594 37.9033 106.59 38.44C105.61 38.9767 104.455 39.245 103.125 39.245C101.562 39.245 100.139 38.8367 98.8554 38.02C97.5954 37.2033 96.5921 36.0367 95.8454 34.52C95.1221 32.98 94.7604 31.195 94.7604 29.165ZM108.9 29.165C108.9 27.905 108.55 26.9133 107.85 26.19C107.174 25.4667 106.334 25.105 105.33 25.105C104.304 25.105 103.452 25.4667 102.775 26.19C102.099 26.89 101.76 27.8817 101.76 29.165C101.76 30.425 102.099 31.4283 102.775 32.175C103.452 32.8983 104.304 33.26 105.33 33.26C106.334 33.26 107.174 32.8983 107.85 32.175C108.55 31.4517 108.9 30.4483 108.9 29.165ZM126.529 13.1V39H119.669V13.1H126.529ZM149.196 28.955C149.196 29.4917 149.161 30.0283 149.091 30.565H136.106C136.176 31.6383 136.468 32.4433 136.981 32.98C137.518 33.4933 138.194 33.75 139.011 33.75C140.154 33.75 140.971 33.2367 141.461 32.21H148.776C148.473 33.5633 147.878 34.7767 146.991 35.85C146.128 36.9 145.031 37.7283 143.701 38.335C142.371 38.9417 140.901 39.245 139.291 39.245C137.354 39.245 135.628 38.8367 134.111 38.02C132.618 37.2033 131.439 36.0367 130.576 34.52C129.736 33.0033 129.316 31.2183 129.316 29.165C129.316 27.1117 129.736 25.3383 130.576 23.845C131.416 22.3283 132.583 21.1617 134.076 20.345C135.593 19.5283 137.331 19.12 139.291 19.12C141.228 19.12 142.943 19.5167 144.436 20.31C145.929 21.1033 147.096 22.2467 147.936 23.74C148.776 25.21 149.196 26.9483 149.196 28.955ZM142.196 27.24C142.196 26.4 141.916 25.7467 141.356 25.28C140.796 24.79 140.096 24.545 139.256 24.545C138.416 24.545 137.728 24.7783 137.191 25.245C136.654 25.6883 136.304 26.3533 136.141 27.24H142.196Z" fill="#39C61C"/>
<path d="M123 17.8H127" stroke="white" stroke-width="2"/>
<path d="M123 27.4H127" stroke="white" stroke-width="2"/>
<path d="M123 37H127" stroke="white" stroke-width="2"/>
</g>
</svg>
